<?xml version="1.0" standalone="no"?>
<!DOCTYPE svg PUBLIC "-//W3C//DTD SVG 20010904//EN"
 "http://www.w3.org/TR/2001/REC-SVG-20010904/DTD/svg10.dtd">
<svg version="1.0" xmlns="http://www.w3.org/2000/svg"
 width="300.000000pt" height="50.000000pt" viewBox="0 0 300.000000 50.000000"
 preserveAspectRatio="xMidYMid meet">
<metadata>
Created by potrace 1.10, written by Peter Selinger 2001-2011
</metadata>
<g transform="translate(0.000000,50.000000) scale(0.100000,-0.100000)"
fill="#000000" stroke="none">
<path d="M110 260 l0 -150 73 0 c90 0 143 14 162 43 8 13 17 54 20 92 5 56 3
77 -12 105 -25 49 -54 60 -155 60 l-88 0 0 -150z m176 79 c18 -15 19 -140 2
-157 -7 -7 -36 -12 -65 -12 l-53 0 0 94 0 95 51 -5 c29 -2 58 -9 65 -15z"/>
<path d="M422 273 c-29 -76 -56 -144 -59 -150 -3 -9 5 -13 29 -13 30 0 36 4
47 35 l13 36 56 -3 c54 -3 57 -4 66 -35 8 -29 13 -33 42 -33 19 0 34 3 33 8 0
4 -26 70 -57 147 -54 134 -58 140 -87 143 -30 2 -30 1 -83 -135z m112 -20 c7
-21 4 -23 -28 -23 -20 0 -36 1 -36 3 0 2 8 26 17 53 l17 49 12 -30 c6 -17 15
-40 18 -52z"/>
<path d="M670 260 l0 -150 30 0 c30 0 30 0 30 56 l0 55 46 -3 c46 -3 47 -3 66
-55 18 -50 21 -53 54 -53 l34 0 -29 58 c-29 58 -29 59 -10 75 14 13 19 30 19
69 0 29 -4 58 -8 64 -16 25 -55 34 -141 34 l-91 0 0 -150z m175 55 l0 -40 -57
-3 -58 -3 0 44 0 45 58 -2 57 -2 0 -39z"/>
<path d="M950 260 l0 -150 30 0 c30 0 30 1 30 54 0 86 18 89 76 11 45 -59 52
-65 87 -65 l38 0 -59 73 c-32 39 -62 78 -66 86 -6 9 11 33 55 77 l63 64 -39 0
c-37 0 -45 -5 -102 -67 l-62 -68 6 68 6 67 -32 0 -31 0 0 -150z"/>
<path d="M1240 260 c0 -127 2 -150 15 -150 12 0 15 14 15 68 l0 67 55 0 54 0
31 -67 c18 -41 36 -68 45 -68 12 0 7 16 -20 69 -33 66 -33 70 -15 76 23 7 44
67 36 100 -12 47 -31 55 -127 55 l-89 0 0 -150z m178 118 c7 -7 12 -28 12 -48
0 -51 -14 -60 -92 -60 l-68 0 0 60 0 60 68 0 c40 0 73 -5 80 -12z"/>
<path d="M1502 263 l3 -148 98 -3 c62 -2 97 1 97 8 0 6 -33 10 -84 10 l-84 0
-4 60 -3 60 68 0 c49 0 67 4 67 13 0 10 -14 13 -55 9 -77 -6 -81 -4 -77 62 l4
56 84 0 c49 0 84 4 84 10 0 6 -40 10 -100 10 l-101 0 3 -147z"/>
<path d="M1779 268 c-30 -78 -55 -145 -57 -150 -2 -4 3 -8 10 -8 8 0 21 19 29
42 l16 43 68 0 68 0 15 -42 c8 -25 20 -43 29 -43 8 0 13 4 11 8 -1 5 -27 72
-57 150 -30 78 -60 142 -66 142 -7 0 -37 -64 -66 -142z m95 28 c14 -37 26 -70
26 -72 0 -2 -25 -4 -55 -4 -30 0 -55 3 -55 7 0 11 53 144 56 141 1 -2 14 -34
28 -72z"/>
<path d="M2000 260 l0 -150 81 0 c76 0 82 2 110 29 28 28 29 34 29 116 0 47
-5 95 -10 106 -18 33 -64 49 -140 49 l-70 0 0 -150z m147 120 c17 -6 35 -22
42 -36 16 -35 14 -140 -4 -173 -16 -33 -39 -41 -112 -41 l-53 0 0 130 0 130
49 0 c26 0 62 -5 78 -10z"/>
<path d="M2280 260 c0 -127 2 -150 15 -150 13 0 15 23 15 150 0 127 -2 150
-15 150 -13 0 -15 -23 -15 -150z"/>
<path d="M2370 260 c0 -93 4 -150 10 -150 6 0 10 50 10 131 l0 131 87 -131
c48 -72 93 -131 100 -131 10 0 13 35 13 150 0 119 -3 150 -13 150 -11 0 -13
-26 -9 -130 3 -72 3 -130 0 -130 -2 0 -42 58 -89 130 -46 71 -90 130 -96 130
-10 0 -13 -37 -13 -150z"/>
<path d="M2669 381 c-28 -28 -29 -34 -29 -116 0 -128 20 -154 115 -155 39 0
68 6 82 15 22 16 43 70 43 113 0 20 -5 22 -45 22 -25 0 -45 -4 -45 -10 0 -5
14 -10 30 -10 28 0 30 -3 30 -35 0 -53 -28 -75 -93 -75 -72 0 -90 19 -95 105
-8 117 16 155 98 155 52 0 90 -23 90 -55 0 -8 7 -15 14 -15 12 0 13 6 4 30
-15 45 -44 60 -111 60 -51 0 -62 -4 -88 -29z"/>
</g>
</svg>
