<svg xmlns="http://www.w3.org/2000/svg" xmlns:xlink="http://www.w3.org/1999/xlink" version="1.1" id="layer" x="0px" y="0px" style="enable-background:new 0 0 652 652;" xml:space="preserve" viewBox="21.2 252.6 600.1 136.7">
<style type="text/css">
	.st0{fill:#2378B8;}
</style>
<g>
	<path class="st0" d="M23.5,311l-2.3,11.5c0,0,13.9,8,23.3,28.7c8.3,18.2,10.3,38.1,10.3,38.1l3.5-9.5c0,0-1.9-19.3-10.4-38.1   C37.2,318,23.5,311,23.5,311z"/>
	<path class="st0" d="M27.5,289.4L25,302.7c0,0,15.2,10.2,23.4,28.5c9.9,22,11.5,43.5,11.5,43.5l3.9-11c0,0-1.1-18.1-9.5-38.7   C43.5,298.2,27.5,289.4,27.5,289.4z"/>
	<path class="st0" d="M45.8,299.5c0,0,6.6-19.6,22.9-19.3c15.9,0.3,22.4,14,37.5,12.7c21.7-1.9,36.6-30,36.6-30l-2.2-10.3   c0,0-13.3,24.5-34.7,25.4c-14.1,0.6-19-11-34-12c-20.3-1.3-27.7,21.7-27.7,21.7L45.8,299.5z"/>
	<path class="st0" d="M65.6,349.4c0,0,8.6-17.3,24.2-17.1c14.2,0.2,21.5,13.9,36.7,12.8c17.7-1.3,28.5-26.1,28.5-26.1l-2-9.2   c0,0-9.3,21.2-27.1,21.9c-14.1,0.5-18.5-11.2-33.5-12.3c-17.1-1.2-26.2,16.4-26.2,16.4L65.6,349.4z"/>
</g>
<g>
	<path class="st0" d="M213.5,284.8l-0.4,10.5c-0.6-0.1-9.2-0.3-14.6-0.3c-0.9,11.2-1.5,28.2-1.6,37.1h-15.2   c1.1-11.3,1.9-22.8,2.1-37.1c-4.9,0-9.8,0.2-14.7,0.3l0.4-10.5C169.4,284.8,213.5,284.8,213.5,284.8z"/>
	<path class="st0" d="M217.1,309.6c0.4-3.1,2.5-6.4,6.4-6.4c3.5,0,5.2,2.2,5.2,6.4H217.1z M241.5,316.2c0.4-1.8,0.5-3.6,0.5-5.4   c0-10-6.5-15.6-18.3-15.6c-19.2,0-20.7,16.2-20.7,20.1c0,14.2,10,17.7,21.5,17.7c4.2,0,8.4-0.5,12.6-1.4l1.7-10.1   c-4,1.2-8.4,2.4-12.6,2.4c-4.8,0-9.5-2-9.5-7.7L241.5,316.2L241.5,316.2z"/>
	<path class="st0" d="M275.2,307.2c-3-1-6.1-1.7-9.2-1.7c-5.6,0-9.1,3.2-9.1,8.9c0,5.4,2.9,8.2,8.3,8.2c3,0,6.1-0.7,9-1.7l-1.7,10.8   c-3.5,0.9-7.1,1.3-10.7,1.3c-11.8,0-18.5-6.4-18.5-18.3c0-3.8,0.9-19.5,19.1-19.5c4.7,0,8.5,0.4,12.2,1.4L275.2,307.2z"/>
	<path class="st0" d="M293.5,283.9c-0.3,2.7-1.1,12.1-1.3,17l0.2,0.1c3.2-4.7,6.9-5.9,13.8-5.9c7.1,0,13.2,2.7,13.2,11.5   c0,2-1,16.4-1,25.4h-14.2c0.4-6.3,1.1-12.6,1.1-18.8c0-3.5-1.1-6.8-5.3-6.8c-3.7,0-6.1,2.5-7.1,5.9c-1.2,3.8-1.5,12-1.8,19.7h-14.4   c1-9,2.5-30.7,2.5-48.2L293.5,283.9L293.5,283.9z"/>
	<path class="st0" d="M338.6,294c-0.8,12.6-1.1,25.3-1.3,38.1h-14.9c1.7-14.9,2.2-28.9,2.3-48.2h25.5c3.5,0,17.3,0.4,17.3,12.8   c0,7.6-4.5,11.7-11.3,14.1c2.8,7.2,6.4,14.1,9.4,21.3h-16c-2.6-9.2-6-18-9.3-27c1.2,0.2,2.4,0.4,3.5,0.4c4.2,0,9.2-1.6,9.2-6.6   c0-4.8-4.8-4.8-8.2-4.8H338.6z"/>
	<path class="st0" d="M379,309.6c0.4-3.1,2.5-6.4,6.4-6.4c3.5,0,5.2,2.2,5.2,6.4H379z M403.4,316.2c0.4-1.8,0.5-3.6,0.5-5.4   c0-10-6.5-15.6-18.3-15.6c-19.2,0-20.7,16.2-20.7,20.1c0,14.2,10,17.7,21.5,17.7c4.2,0,8.4-0.5,12.6-1.4l1.7-10.1   c-4,1.2-8.4,2.4-12.6,2.4c-4.8,0-9.5-2-9.5-7.7L403.4,316.2L403.4,316.2z"/>
	<path class="st0" d="M419.7,305.8c1.7-0.4,3.5-0.8,5.3-0.8c5.3,0,8,3.3,8,8.5c0,4.3-1.9,9.6-7.1,9.6c-4.9,0-6.9-4.8-6.9-9   C419,311.3,419.3,308.5,419.7,305.8z M417.8,348.5c0-6.6,0.4-13.4,0.6-20.1c3.7,3,8.1,4.5,12.8,4.5c10.4,0,15.5-9.6,15.5-18.9   c0-9.8-4.9-18.8-19.6-18.8c-8.1,0-14.5,0.8-21,1.9c0,17.2-1,34.4-2.5,51.5L417.8,348.5L417.8,348.5z"/>
	<path class="st0" d="M474.8,327.4l-0.1-0.2c-3,4.3-7.4,5.6-12.6,5.6c-10,0-12.9-4.9-12.9-11c0-2.3,1.3-18.8,1.3-25.9h14.1   c-0.3,6.4-1.3,12.8-1.3,19.2c0,3.5,1.2,6.4,5.1,6.4c3.7,0,5.7-2.9,6.4-6.1c0.9-4,1.1-12.3,1.3-19.5h14c-1.2,12-1.7,24-2,36h-13.3   V327.4z"/>
	<path class="st0" d="M506.8,305.8c1.7-0.4,3.5-0.8,5.3-0.8c5.3,0,8,3.3,8,8.5c0,4.3-1.9,9.6-7.1,9.6c-4.9,0-6.9-4.8-6.9-9   C506,311.3,506.3,308.5,506.8,305.8z M505,327.5h0.1c2.8,3.7,6.5,5.4,11.3,5.4c11.6,0,17.3-9.7,17.3-20.4   c0-11.3-6.6-17.4-17.7-17.4c-1.5,0-2.9,0.1-4.3,0.2c-1.4,0.1-2.8,0.4-4.3,0.7c0.3-5.1,0.6-8.7,1.1-12.1h-14.4   c-0.2,16.1-1.3,32.1-2.5,48.2H505L505,327.5z"/>
	<path class="st0" d="M551.8,283.9c-0.8,8.1-2.4,35.5-2.6,48.2h-14.4c1.4-16,2.2-32.1,2.6-48.2H551.8z"/>
	<path class="st0" d="M552.7,332c1.2-10.9,1.7-21.7,1.9-36h14.4c-1.2,12-1.3,24-1.3,36H552.7z M555,291.5l0.1-8.5h14l-0.4,8.5H555z"/>
	<path class="st0" d="M602.8,307.2c-3-1-6.1-1.7-9.2-1.7c-5.6,0-9.1,3.2-9.1,8.9c0,5.4,2.9,8.2,8.3,8.2c3,0,6.1-0.7,9-1.7l-1.7,10.8   c-3.5,0.9-7.2,1.3-10.8,1.3c-11.8,0-18.5-6.4-18.5-18.3c0-3.8,0.9-19.5,19.1-19.5c4.7,0,8.5,0.4,12.2,1.4L602.8,307.2z"/>
	<path class="st0" d="M619.3,330.2c-1.2,1.2-2.7,1.8-4.4,1.8c-1.8,0-3.3-0.6-4.5-1.8c-1.2-1.2-1.8-2.7-1.8-4.5c0-1.8,0.7-3.4,2-4.6   c1.2-1.1,2.7-1.7,4.3-1.7c1.7,0,3.2,0.6,4.5,1.8c1.2,1.2,1.9,2.7,1.9,4.5C621.2,327.5,620.6,329,619.3,330.2z M611.2,322   c-1,1-1.5,2.2-1.5,3.7c0,1.5,0.5,2.7,1.5,3.7c1,1,2.2,1.5,3.7,1.5c1.4,0,2.7-0.5,3.7-1.5c1-1,1.5-2.3,1.5-3.7   c0-1.4-0.5-2.6-1.5-3.7c-1-1.1-2.2-1.6-3.7-1.6C613.4,320.5,612.2,321,611.2,322z M612.1,329.2v-7c0.4,0,1.1,0,2,0   c0.9,0,1.3,0,1.4,0c0.5,0,1,0.2,1.4,0.4c0.6,0.3,0.9,0.9,0.9,1.7c0,0.6-0.2,1-0.5,1.3c-0.3,0.3-0.7,0.4-1.2,0.5   c0.4,0.1,0.8,0.2,1,0.4c0.4,0.3,0.6,0.9,0.6,1.6v0.6c0,0.1,0,0.1,0,0.2c0,0.1,0,0.1,0.1,0.2l0.1,0.2h-1.7c-0.1-0.2-0.1-0.5-0.1-1   c0-0.4-0.1-0.7-0.1-0.9c-0.1-0.2-0.3-0.4-0.5-0.5c-0.1-0.1-0.3-0.1-0.6-0.1l-0.4,0h-0.4v2.5L612.1,329.2L612.1,329.2z M615.4,323.6   c-0.3-0.1-0.6-0.2-1.1-0.2h-0.4v2.1h0.7c0.4,0,0.8-0.1,1-0.3c0.2-0.2,0.4-0.5,0.4-0.8C616,324,615.8,323.7,615.4,323.6z"/>
</g>
</svg>